<svg width="37" height="37" viewBox="0 0 37 37" fill="none" xmlns="http://www.w3.org/2000/svg">
<rect x="3" y="5" width="29" height="25" fill="white"/>
<path d="M14.3188 13.5119H13.7907H10.2697V16.7395H14.0547C14.7296 16.7395 15.3164 16.5634 15.3164 15.0083C15.3164 13.4532 14.3188 13.5119 14.3188 13.5119Z" fill="#2F80ED"/>
<path d="M14.3188 19.0868H10.2697V23.1947H13.82C13.8787 23.1947 13.9667 23.1947 14.0841 23.1947C14.6709 23.1947 15.7859 22.96 15.7859 21.1994C15.8153 19.1162 14.3188 19.0868 14.3188 19.0868Z" fill="#2F80ED"/>
<path d="M27.6987 0.0146708H9.27201C4.16653 0.0146708 0 4.1812 0 9.28667V27.7427C0 32.8188 4.16653 36.9853 9.27201 36.9853H27.728C32.8335 36.9853 37 32.8188 37 27.7133V9.28667C36.9707 4.1812 32.8041 0.0146708 27.6987 0.0146708ZM21.7129 11.7514H27.8747V13.2185H21.7129V11.7514ZM18.8374 21.4048C18.8374 25.9821 14.3188 26.1289 14.3188 26.1289H10.1523H10.0349H7.04203V10.8711H10.0056H10.1229H14.2895C16.5488 10.8711 18.3386 12.1622 18.3386 14.8616C18.3386 17.5611 16.1673 17.7078 16.1673 17.7078C19.0428 17.6784 18.8374 21.4048 18.8374 21.4048ZM29.8993 21.1408H22.4758C22.4758 24.0749 24.9992 23.8402 24.9992 23.8402C27.3759 23.8402 27.2879 22.3144 27.2879 22.3144H29.8113C29.8113 26.4223 24.9112 26.2462 24.9112 26.2462C19.0428 26.2462 19.4243 20.4659 19.4243 20.4659C19.4243 20.4659 19.4243 14.6562 24.9112 14.6562C30.6915 14.6269 29.8993 21.1408 29.8993 21.1408Z" fill="#2F80ED"/>
<path d="M24.9699 16.7688C22.7692 16.7688 22.4465 19.0868 22.4465 19.0868H27.1412C27.1412 19.0868 27.1705 16.7688 24.9699 16.7688Z" fill="#2F80ED"/>
</svg>
