<svg width="37" height="37" viewBox="0 0 37 37" fill="none" xmlns="http://www.w3.org/2000/svg">
<rect x="4" y="6" width="29" height="25" fill="white"/>
<path d="M14.2714 9.6024C11.5111 10.8945 9.48493 13.4199 8.8389 16.4738C9.10318 16.4738 13.2143 16.5326 17.9421 15.2699C16.2389 12.2453 14.4183 9.77859 14.2714 9.6024Z" fill="#EA4789"/>
<path d="M18.7643 16.7968C13.6841 18.3238 8.80952 18.2064 8.63333 18.2064C8.63333 18.2945 8.63333 18.4119 8.63333 18.5294C8.63333 21.0548 9.60238 23.3746 11.1587 25.1071C11.1587 25.1071 13.8603 20.2913 19.1754 18.5881C19.2929 18.5587 19.4397 18.5 19.5571 18.4706C19.3222 17.9127 19.0286 17.3548 18.7643 16.7968Z" fill="#EA4789"/>
<path d="M18.5 8.63335C17.7071 8.63335 16.9143 8.72145 16.1801 8.89764C16.327 9.1032 18.177 11.5405 19.8801 14.6532C23.5801 13.273 24.9897 11.1294 25.019 11.1C23.2865 9.57304 20.996 8.63335 18.5 8.63335Z" fill="#EA4789"/>
<path d="M22.0826 19.6452C23.3746 23.1984 23.9032 26.0762 23.9913 26.6929C26.1937 25.1952 27.7794 22.8167 28.2199 20.0857C28.0437 19.9976 25.2833 19.1167 22.0826 19.6452Z" fill="#EA4789"/>
<path d="M27.7206 0H9.25C4.16984 0 0 4.16984 0 9.27937V27.75C0 32.8302 4.16984 37 9.25 37H27.7206C32.8302 37 37 32.8302 37 27.7206V9.27937C37 4.16984 32.8302 0 27.7206 0ZM29.8056 20.8198C29.6587 21.554 29.4238 22.2881 29.1302 22.9929C28.8365 23.6683 28.4841 24.3437 28.073 24.9603C27.6619 25.577 27.1921 26.1349 26.6635 26.6635C26.1349 27.1921 25.577 27.6619 24.9603 28.073C24.3437 28.4841 23.6976 28.8365 22.9929 29.1302C22.2881 29.4238 21.554 29.6587 20.8198 29.8056C20.0564 29.9524 19.2929 30.0405 18.5 30.0405C17.7071 30.0405 16.9437 29.9524 16.1802 29.8056C15.446 29.6587 14.7119 29.4238 14.0071 29.1302C13.3317 28.8365 12.6564 28.4841 12.0397 28.073C11.423 27.6619 10.8651 27.1921 10.3365 26.6635C9.80794 26.1349 9.3381 25.577 8.92698 24.9603C8.51587 24.3437 8.16349 23.6976 7.86984 22.9929C7.57619 22.2881 7.34127 21.554 7.19444 20.8198C7.04762 20.0564 6.95952 19.2635 6.95952 18.5C6.95952 17.7071 7.04762 16.9437 7.19444 16.1802C7.34127 15.446 7.57619 14.7119 7.86984 14.0071C8.16349 13.3317 8.51587 12.6564 8.92698 12.0397C9.3381 11.423 9.80794 10.8651 10.3365 10.3365C10.8651 9.80794 11.423 9.3381 12.0397 8.92698C12.6564 8.51587 13.3024 8.16349 14.0071 7.86984C14.7119 7.57619 15.446 7.34127 16.1802 7.19444C16.9437 7.04762 17.7365 6.95952 18.5 6.95952C19.2929 6.95952 20.0564 7.04762 20.8198 7.19444C21.554 7.34127 22.2881 7.57619 22.9929 7.86984C23.6683 8.16349 24.3437 8.51587 24.9603 8.92698C25.577 9.3381 26.1349 9.80794 26.6635 10.3365C27.1921 10.8651 27.6619 11.423 28.073 12.0397C28.4841 12.6564 28.8365 13.3024 29.1302 14.0071C29.4238 14.7119 29.6587 15.446 29.8056 16.1802C29.9524 16.9437 30.0405 17.7071 30.0405 18.5C30.0405 19.2929 29.9524 20.0564 29.8056 20.8198Z" fill="#EA4789"/>
<path d="M20.2326 20.0857C20.2326 20.0857 20.2032 20.1151 20.1738 20.1151C14.3595 22.1413 12.4508 26.223 12.4508 26.2818C14.1246 27.5738 16.2095 28.3667 18.5 28.3667C19.8508 28.3667 21.1722 28.073 22.3468 27.5738C22.2 26.7222 21.6421 23.6976 20.2326 20.0857Z" fill="#EA4789"/>
<path d="M26.1056 12.2453C26.1056 12.2746 24.5198 14.5651 20.6143 16.1508C20.8492 16.6206 21.0548 17.0905 21.2603 17.5897C21.3191 17.7659 21.4071 17.9421 21.4659 18.0889C24.8429 17.6484 28.1905 18.3826 28.3373 18.4119C28.3079 16.0627 27.4857 13.9191 26.1056 12.2453Z" fill="#EA4789"/>
</svg>
