<svg width="37" height="37" viewBox="0 0 37 37" fill="none" xmlns="http://www.w3.org/2000/svg">
<g clip-path="url(#clip0)">
<rect x="4" y="3" width="29" height="31" fill="white"/>
<path d="M2.31248 2.51756C-0.595102 5.53768 -1.83359e-05 8.74589 -1.83359e-05 18.4923C-1.83359e-05 26.5861 -1.41219 34.6999 5.97856 36.61C8.28644 37.2035 28.7351 37.2035 31.0399 36.6069C34.1171 35.8129 36.6207 33.317 36.963 28.9649C37.0108 28.3574 37.0108 8.63798 36.9614 8.01823C36.5976 3.38243 33.744 0.710726 29.9839 0.169601C29.1221 0.0447261 28.9494 0.00772614 24.5279 1.78032e-05C8.84452 0.00772614 5.40661 -0.690649 2.31248 2.51756Z" fill="url(#paint0_linear)"/>
<path d="M18.4969 4.83928C12.8991 4.83928 7.58347 4.34132 5.55309 9.55215C4.71443 11.7043 4.83622 14.4994 4.83622 18.5015C4.83622 22.0134 4.72368 25.3142 5.55309 27.4494C7.57884 32.6633 12.9377 32.1638 18.4938 32.1638C23.8542 32.1638 29.3811 32.7219 31.4361 27.4494C32.2763 25.2756 32.153 22.5222 32.153 18.5015C32.153 13.1643 32.4475 9.71865 29.859 7.13174C27.2382 4.5109 23.6939 4.83928 18.4908 4.83928H18.4969ZM17.2728 7.30132C28.9494 7.28282 30.4356 5.98474 29.6154 24.0176C29.324 30.3955 24.4678 29.6956 18.4985 29.6956C7.6143 29.6956 7.30134 29.3842 7.30134 18.4954C7.30134 7.48015 8.16468 7.30749 17.2728 7.29824V7.30132ZM25.789 9.56911C24.8841 9.56911 24.1502 10.3029 24.1502 11.2079C24.1502 12.1129 24.8841 12.8467 25.789 12.8467C26.694 12.8467 27.4278 12.1129 27.4278 11.2079C27.4278 10.3029 26.694 9.56911 25.789 9.56911ZM18.4969 11.4854C14.6227 11.4854 11.4823 14.6273 11.4823 18.5015C11.4823 22.3757 14.6227 25.5161 18.4969 25.5161C22.3711 25.5161 25.51 22.3757 25.51 18.5015C25.51 14.6273 22.3711 11.4854 18.4969 11.4854ZM18.4969 13.9474C24.5171 13.9474 24.5248 23.0556 18.4969 23.0556C12.4783 23.0556 12.469 13.9474 18.4969 13.9474Z" fill="white"/>
</g>
<defs>
<linearGradient id="paint0_linear" x1="2.38343" y1="34.6368" x2="36.771" y2="4.87473" gradientUnits="userSpaceOnUse">
<stop stop-color="#FFDD55"/>
<stop offset="0.5" stop-color="#FF543E"/>
<stop offset="1" stop-color="#C837AB"/>
</linearGradient>
<clipPath id="clip0">
<rect width="37" height="37" fill="white"/>
</clipPath>
</defs>
</svg>
