<svg width="37" height="37" viewBox="0 0 37 37" fill="none" xmlns="http://www.w3.org/2000/svg">
<rect x="4" width="30" height="29" rx="6" fill="white"/>
<rect x="11" y="26" width="6" height="6" rx="3" fill="white"/>
<path fill-rule="evenodd" clip-rule="evenodd" d="M0 32.6641V4.97107L4.97107 0H37V25.525L29.861 32.6641H18.9489L14.6129 37H8.67188V32.6641H0ZM32.6641 4.33594H6.50391V26.1602H13.0801V32.0289L18.9489 26.1602H27.693L32.6641 21.1891V4.33594ZM18.0511 23.9922L15.248 26.7953V23.9922H8.67188V6.50391H30.4961V20.2914L26.7953 23.9922H18.0511ZM26.1602 11.9238H23.9922V18.5723H26.1602V11.9238ZM19.584 11.9238H17.416V18.5723H19.584V11.9238Z" fill="#8756E2"/>
</svg>
